<svg width="881" height="165" viewBox="0 0 881 165" fill="none" xmlns="http://www.w3.org/2000/svg">
<path d="M58.8125 85.5938H23.1094V132H0.140625V18.25H63.1094V37.3906H23.1094V66.5312H58.8125V85.5938ZM107.562 133.562C96.2083 133.562 87.3542 130.177 81 123.406C74.6458 116.635 71.4688 106.948 71.4688 94.3438V87.625C71.4688 74.2917 74.3854 64.0052 80.2188 56.7656C86.0521 49.526 94.4115 45.9062 105.297 45.9062C115.922 45.9062 123.917 49.3177 129.281 56.1406C134.646 62.9115 137.38 72.9635 137.484 86.2969V97.1562H93.5C93.8125 103.406 95.1927 107.99 97.6406 110.906C100.089 113.771 103.865 115.203 108.969 115.203C116.365 115.203 122.536 112.677 127.484 107.625L136.156 120.984C133.448 124.734 129.516 127.781 124.359 130.125C119.203 132.417 113.604 133.562 107.562 133.562ZM93.6562 81.6875H115.766V79.6562C115.661 74.6042 114.828 70.776 113.266 68.1719C111.703 65.5677 108.995 64.2656 105.141 64.2656C101.286 64.2656 98.474 65.6458 96.7031 68.4062C94.9844 71.1667 93.9688 75.5938 93.6562 81.6875ZM215.844 92.3906C215.844 105.672 213.552 115.854 208.969 122.938C204.438 130.021 197.667 133.562 188.656 133.562C181.781 133.562 176.26 130.776 172.094 125.203V164.5H149.984V47.4688H170.453L171.234 55.2031C175.453 49.0052 181.208 45.9062 188.5 45.9062C197.51 45.9062 204.281 49.1875 208.812 55.75C213.396 62.3125 215.74 72.3646 215.844 85.9062V92.3906ZM193.812 86.8438C193.812 78.6667 192.901 72.8854 191.078 69.5C189.307 66.1146 186.286 64.4219 182.016 64.4219C177.484 64.4219 174.177 66.3229 172.094 70.125V109.734C174.073 113.38 177.432 115.203 182.172 115.203C186.547 115.203 189.568 113.354 191.234 109.656C192.953 105.958 193.812 100.203 193.812 92.3906V86.8438ZM252.406 132H230.219V47.4688H252.406V132ZM229.203 25.5938C229.203 22.1562 230.297 19.3438 232.484 17.1562C234.672 14.9688 237.589 13.875 241.234 13.875C244.88 13.875 247.797 14.9688 249.984 17.1562C252.172 19.3438 253.266 22.1562 253.266 25.5938C253.266 28.9792 252.172 31.7917 249.984 34.0312C247.849 36.2708 244.932 37.3906 241.234 37.3906C237.536 37.3906 234.594 36.2708 232.406 34.0312C230.271 31.7917 229.203 28.9792 229.203 25.5938ZM375.844 85.5938H340.141V132H317.172V18.25H380.141V37.3906H340.141V66.5312H375.844V85.5938ZM415.375 132H393.188V47.4688H415.375V132ZM392.172 25.5938C392.172 22.1562 393.266 19.3438 395.453 17.1562C397.641 14.9688 400.557 13.875 404.203 13.875C407.849 13.875 410.766 14.9688 412.953 17.1562C415.141 19.3438 416.234 22.1562 416.234 25.5938C416.234 28.9792 415.141 31.7917 412.953 34.0312C410.818 36.2708 407.901 37.3906 404.203 37.3906C400.505 37.3906 397.562 36.2708 395.375 34.0312C393.24 31.7917 392.172 28.9792 392.172 25.5938ZM452.719 47.4688L453.344 55.8281C458.344 49.2135 464.88 45.9062 472.953 45.9062C487.484 45.9062 494.958 56.0885 495.375 76.4531V132H473.188V78.0938C473.188 73.3021 472.458 69.8385 471 67.7031C469.594 65.5156 467.094 64.4219 463.5 64.4219C459.49 64.4219 456.365 66.4792 454.125 70.5938V132H431.938V47.4688H452.719ZM551.391 132C550.766 130.698 550.141 128.51 549.516 125.438C545.557 130.854 540.193 133.562 533.422 133.562C526.339 133.562 520.453 131.219 515.766 126.531C511.13 121.844 508.812 115.776 508.812 108.328C508.812 99.474 511.625 92.625 517.25 87.7812C522.927 82.9375 531.078 80.4635 541.703 80.3594H548.422V73.5625C548.422 69.7604 547.771 67.0781 546.469 65.5156C545.167 63.9531 543.266 63.1719 540.766 63.1719C535.245 63.1719 532.484 66.401 532.484 72.8594H510.375C510.375 65.0469 513.292 58.6146 519.125 53.5625C525.01 48.4583 532.432 45.9062 541.391 45.9062C550.661 45.9062 557.823 48.3281 562.875 53.1719C567.979 57.9635 570.531 64.8385 570.531 73.7969V113.562C570.635 120.854 571.677 126.557 573.656 130.672V132H551.391ZM538.344 116.219C540.792 116.219 542.875 115.724 544.594 114.734C546.312 113.745 547.589 112.573 548.422 111.219V93.6406H543.109C539.359 93.6406 536.391 94.8385 534.203 97.2344C532.068 99.6302 531 102.833 531 106.844C531 113.094 533.448 116.219 538.344 116.219ZM606.781 47.4688L607.406 55.8281C612.406 49.2135 618.943 45.9062 627.016 45.9062C641.547 45.9062 649.021 56.0885 649.438 76.4531V132H627.25V78.0938C627.25 73.3021 626.521 69.8385 625.062 67.7031C623.656 65.5156 621.156 64.4219 617.562 64.4219C613.552 64.4219 610.427 66.4792 608.188 70.5938V132H586V47.4688H606.781ZM695.844 115.203C702.25 115.203 705.505 111.036 705.609 102.703H726.391C726.286 111.922 723.448 119.37 717.875 125.047C712.302 130.724 705.115 133.562 696.312 133.562C685.427 133.562 677.12 130.177 671.391 123.406C665.661 116.635 662.745 106.661 662.641 93.4844V86.7656C662.641 73.4844 665.453 63.3542 671.078 56.375C676.755 49.3958 685.115 45.9062 696.156 45.9062C705.479 45.9062 712.823 48.7969 718.188 54.5781C723.552 60.3073 726.286 68.4583 726.391 79.0312H705.609C705.557 74.2917 704.776 70.6458 703.266 68.0938C701.755 65.5417 699.255 64.2656 695.766 64.2656C691.911 64.2656 689.151 65.6458 687.484 68.4062C685.818 71.1146 684.932 76.401 684.828 84.2656V92.8594C684.828 99.7344 685.167 104.552 685.844 107.312C686.521 110.021 687.641 112.026 689.203 113.328C690.766 114.578 692.979 115.203 695.844 115.203ZM773.031 133.562C761.677 133.562 752.823 130.177 746.469 123.406C740.115 116.635 736.938 106.948 736.938 94.3438V87.625C736.938 74.2917 739.854 64.0052 745.688 56.7656C751.521 49.526 759.88 45.9062 770.766 45.9062C781.391 45.9062 789.385 49.3177 794.75 56.1406C800.115 62.9115 802.849 72.9635 802.953 86.2969V97.1562H758.969C759.281 103.406 760.661 107.99 763.109 110.906C765.557 113.771 769.333 115.203 774.438 115.203C781.833 115.203 788.005 112.677 792.953 107.625L801.625 120.984C798.917 124.734 794.984 127.781 789.828 130.125C784.672 132.417 779.073 133.562 773.031 133.562ZM759.125 81.6875H781.234V79.6562C781.13 74.6042 780.297 70.776 778.734 68.1719C777.172 65.5677 774.464 64.2656 770.609 64.2656C766.755 64.2656 763.943 65.6458 762.172 68.4062C760.453 71.1667 759.438 75.5938 759.125 81.6875Z" fill="white"/>
<path d="M271.312 120.75C271.312 117.208 272.484 114.292 274.828 112C277.224 109.708 280.323 108.562 284.125 108.562C287.823 108.562 290.896 109.708 293.344 112C295.792 114.24 297.016 117.156 297.016 120.75C297.016 124.396 295.766 127.339 293.266 129.578C290.818 131.766 287.771 132.859 284.125 132.859C280.427 132.859 277.354 131.74 274.906 129.5C272.51 127.26 271.312 124.344 271.312 120.75ZM858.734 102C858.734 97.6771 857.849 94.2656 856.078 91.7656C854.307 89.2656 851.391 86.9219 847.328 84.7344C839.359 81.1927 833.448 77.8073 829.594 74.5781C825.792 71.2969 822.953 67.5729 821.078 63.4062C819.203 59.1875 818.266 54.1875 818.266 48.4062C818.266 39.7604 820.661 32.625 825.453 27C830.245 21.3229 836.573 17.9635 844.438 16.9219V0.203125H856.234V17.2344C864.047 18.7448 870.115 22.7031 874.438 29.1094C878.812 35.5156 881 43.6406 881 53.4844H858.891C858.891 47.2344 857.979 42.5729 856.156 39.5C854.385 36.4271 852.068 34.8906 849.203 34.8906C846.443 34.8906 844.281 36.0885 842.719 38.4844C841.156 40.8802 840.375 44.2135 840.375 48.4844C840.375 52.1823 841.182 55.2552 842.797 57.7031C844.411 60.151 847.484 62.7031 852.016 65.3594C860.349 69.3177 866.339 72.9375 869.984 76.2188C873.682 79.4479 876.417 83.1198 878.188 87.2344C879.958 91.349 880.844 96.2188 880.844 101.844C880.844 110.646 878.5 117.807 873.812 123.328C869.177 128.849 862.745 132.156 854.516 133.25V148.797H842.797V133.25C833.786 131.948 826.833 128.12 821.938 121.766C817.042 115.359 814.594 106.844 814.594 96.2188H836.703C836.703 102.365 837.693 107.104 839.672 110.438C841.651 113.719 844.62 115.359 848.578 115.359C851.755 115.359 854.229 114.188 856 111.844C857.823 109.448 858.734 106.167 858.734 102Z" fill="#49AA26"/>
</svg>
